<svg width="64" height="64" viewBox="0 0 64 64" fill="none" xmlns="http://www.w3.org/2000/svg">
<path fill-rule="evenodd" clip-rule="evenodd" d="M61.3334 48C61.3334 50.9455 58.9455 53.3334 56 53.3334H8.00002C5.0545 53.3334 2.66669 50.9455 2.66669 48V39.7016L3.99808 38.9314C6.45636 37.5094 8.00002 34.8906 8.00002 32C8.00002 29.1094 6.45636 26.4907 3.99808 25.0686L2.66669 24.2985V16C2.66669 13.0545 5.0545 10.6667 8.00002 10.6667H56C58.9455 10.6667 61.3334 13.0545 61.3334 16V24.2985L60.002 25.0686C57.5437 26.4907 56 29.1094 56 32C56 34.8906 57.5437 37.5094 60.002 38.9314L61.3334 39.7016V48ZM50.6667 32C50.6667 27.732 52.6907 23.8144 56 21.3319V16L40 16C40 17.4728 38.8061 18.6667 37.3334 18.6667C35.8606 18.6667 34.6667 17.4728 34.6667 16L8.00002 16V21.3319C11.3094 23.8144 13.3334 27.732 13.3334 32C13.3334 36.268 11.3094 40.1857 8.00002 42.6681V48L34.6667 48C34.6667 46.5273 35.8606 45.3334 37.3334 45.3334C38.8061 45.3334 40 46.5273 40 48L56 48V42.6681C52.6907 40.1857 50.6667 36.268 50.6667 32ZM37.3334 42.6667C38.8061 42.6667 40 41.4728 40 40C40 38.5273 38.8061 37.3334 37.3334 37.3334C35.8606 37.3334 34.6667 38.5273 34.6667 40C34.6667 41.4728 35.8606 42.6667 37.3334 42.6667ZM40 32C40 33.4728 38.8061 34.6667 37.3334 34.6667C35.8606 34.6667 34.6667 33.4728 34.6667 32C34.6667 30.5273 35.8606 29.3334 37.3334 29.3334C38.8061 29.3334 40 30.5273 40 32ZM37.3334 26.6667C38.8061 26.6667 40 25.4728 40 24C40 22.5273 38.8061 21.3334 37.3334 21.3334C35.8606 21.3334 34.6667 22.5273 34.6667 24C34.6667 25.4728 35.8606 26.6667 37.3334 26.6667Z" fill="#FAFF00"/>
</svg>
