<svg width="48" height="48" viewBox="0 0 48 48" fill="none" xmlns="http://www.w3.org/2000/svg">
<path fill-rule="evenodd" clip-rule="evenodd" d="M26 23.8V38H22V23.8C17.4355 22.8734 14 18.8379 14 14C14 8.47715 18.4772 4 24 4C29.5228 4 34 8.47715 34 14C34 18.8379 30.5645 22.8734 26 23.8ZM18 28.3146V32.3687C12.1344 33.101 8 34.7735 8 36C8 37.6139 15.1583 40 24 40C32.8417 40 40 37.6139 40 36C40 34.7735 35.8656 33.101 30 32.3687V28.3146C38.1118 29.2034 44 31.9356 44 36C44 41.0135 35.0405 44 24 44C12.9595 44 4 41.0135 4 36C4 31.9356 9.88825 29.2034 18 28.3146ZM30 14C30 17.3137 27.3137 20 24 20C20.6863 20 18 17.3137 18 14C18 10.6863 20.6863 8 24 8C27.3137 8 30 10.6863 30 14Z" fill="#FAFF00"/>
</svg>
