<svg width="64" height="64" viewBox="0 0 64 64" fill="none" xmlns="http://www.w3.org/2000/svg">
<path fill-rule="evenodd" clip-rule="evenodd" d="M32.0001 61.3333C15.7997 61.3333 2.66675 48.2004 2.66675 32C2.66675 15.7996 15.7997 2.66667 32.0001 2.66667C48.2004 2.66667 61.3334 15.7996 61.3334 32C61.3334 48.2004 48.2004 61.3333 32.0001 61.3333ZM32.0001 56C45.2549 56 56.0001 45.2548 56.0001 32C56.0001 18.7452 45.2549 8 32.0001 8C18.7452 8 8.00008 18.7452 8.00008 32C8.00008 45.2548 18.7452 56 32.0001 56ZM18.6667 34.6667H36.2288L30.1145 40.7811L33.8857 44.5523L46.438 32L33.8857 19.4477L30.1145 23.219L36.2288 29.3333H18.6667V34.6667Z" fill="#FAFF00"/>
</svg>
