<svg width="72" height="72" viewBox="0 0 72 72" fill="none" xmlns="http://www.w3.org/2000/svg">
<path fill-rule="evenodd" clip-rule="evenodd" d="M36 69C17.7746 69 3 54.2254 3 36C3 17.7746 17.7746 3 36 3C54.2254 3 69 17.7746 69 36C69 54.2254 54.2254 69 36 69ZM58.1985 51.3739C61.2259 47.011 63 41.7127 63 36C63 21.0883 50.9117 9 36 9C21.0883 9 9 21.0883 9 36C9 41.7127 10.7741 47.011 13.8015 51.3739C17.1779 46.9142 25.1118 45 36 45C46.8882 45 54.8221 46.9142 58.1985 51.3739ZM53.894 56.2193C53.016 53.062 46.7082 51 36 51C25.2918 51 18.984 53.062 18.106 56.2193C22.8699 60.4385 29.1358 63 36 63C42.8642 63 49.1301 60.4385 53.894 56.2193ZM36 18C28.7373 18 24 23.2673 24 30C24 40.2821 29.2826 45 36 45C42.6543 45 48 40.4388 48 30.6C48 23.7647 43.2426 18 36 18ZM30 30C30 36.8078 32.4546 39 36 39C39.5331 39 42 36.8952 42 30.6C42 26.8513 39.647 24 36 24C32.2012 24 30 26.4475 30 30Z" fill="#FAFF00"/>
</svg>
