<svg width="67" height="67" viewBox="0 0 67 67" fill="none" xmlns="http://www.w3.org/2000/svg">
<path fill-rule="evenodd" clip-rule="evenodd" d="M34.6667 66.6667C16.9936 66.6667 2.66675 52.3398 2.66675 34.6667C2.66675 16.9936 16.9936 2.66667 34.6667 2.66667C52.3399 2.66667 66.6667 16.9936 66.6667 34.6667C66.6667 52.3398 52.3399 66.6667 34.6667 66.6667ZM34.6667 60.8485C49.1265 60.8485 60.8485 49.1265 60.8485 34.6667C60.8485 20.2069 49.1265 8.48486 34.6667 8.48486C20.2069 8.48486 8.48491 20.2069 8.48491 34.6667C8.48491 49.1265 20.2069 60.8485 34.6667 60.8485ZM49.2122 31.7576H30.0536L36.7238 25.0873L32.6097 20.9733L18.9163 34.6667L32.6097 48.3601L36.7238 44.246L30.0536 37.5757H49.2122V31.7576Z" fill="#FAFF00"/>
</svg>
