<svg width="72" height="72" viewBox="0 0 72 72" fill="none" xmlns="http://www.w3.org/2000/svg">
<path fill-rule="evenodd" clip-rule="evenodd" d="M12 27H17.9993C18.0002 28.0996 18.6079 29.158 19.6584 29.6833C21.1403 30.4242 22.9423 29.8236 23.6833 28.3416L24.3541 27H47.6459L48.3167 28.3416C49.0577 29.8236 50.8597 30.4242 52.3416 29.6833C53.3921 29.158 53.9998 28.0996 54.0007 27H60V33H12V27ZM51.3541 21H60C63.3137 21 66 23.6863 66 27V33C66 35.5201 64.4464 37.6772 62.2447 38.566C62.2549 38.7093 62.2602 38.8541 62.2602 39C62.2602 39.4378 62.2122 39.8742 62.1173 40.3016L57.4506 61.3016C56.8406 64.0468 54.4057 66 51.5935 66H20.4065C17.5943 66 15.1594 64.0468 14.5494 61.3016L9.88273 40.3016C9.75284 39.7171 9.71301 39.1336 9.75402 38.5655C7.55302 37.6764 6 35.5196 6 33V27C6 23.6863 8.68629 21 12 21H20.6459L27.3167 7.65836C28.0577 6.17642 29.8597 5.57575 31.3416 6.31672C32.8236 7.05769 33.4242 8.85971 32.6833 10.3416L27.3541 21H44.6459L39.3167 10.3416C38.5757 8.85971 39.1764 7.05769 40.6584 6.31672C42.1403 5.57575 43.9423 6.17642 44.6833 7.65836L51.3541 21ZM20.4065 60L15.7398 39H56.2602L51.5935 60H20.4065Z" fill="#FAFF00"/>
</svg>
